<svg xmlns="http://www.w3.org/2000/svg" fill="none" viewBox="0 0 659 62" height="62" width="659">
<g clip-path="url(#clip0_168_49)">
<path fill="#1B1B1B" d="M42.0334 26.8972L31.6551 59.608H20.2064L5.07018 11.1217C4.66873 9.81326 4.08885 8.83193 3.43464 7.77627L0 2.28977V2.12622H24.206V2.28977L20.2807 7.7614C19.79 8.41562 19.79 8.90628 20.1171 9.8876L32.6216 50.449L41.1264 23.8789L37.2011 11.1217C36.7997 9.81326 36.3833 8.99549 35.8183 8.01416L32.6216 2.28977V2.12622H56.4113V2.28977L52.486 7.7614C51.9953 8.48996 51.921 8.90628 52.2332 9.8876L64.4998 50.3598L75.2051 15.7755C75.6066 14.4671 75.5322 14.0657 74.6401 12.8316L67.2802 2.28977V2.12622H86.6539V2.28977L78.8925 12.668C77.7477 14.14 77.4205 14.5563 76.9299 16.177L63.5185 59.5931H52.0697L42.0185 26.8823L42.0334 26.8972Z"></path>
<path fill="#1B1B1B" d="M129.698 53.72C129.698 54.7757 129.773 55.0285 130.516 55.6827L134.516 59.4444V59.608H111.618V59.4444L115.454 55.6827C116.198 55.0285 116.272 54.7014 116.272 53.8092C116.272 52.5752 116.525 41.5427 116.525 37.6174C116.525 30.1831 115.306 25.2765 110.31 25.2765C107.529 25.2765 105.656 26.8228 104.184 28.949V53.72C104.184 54.7757 104.258 55.0285 105.002 55.6827L109.001 59.4444V59.608H86.1038V59.4444L90.1034 55.6827C90.7576 55.0285 90.8468 54.7906 90.8468 53.72V8.08849C90.8468 7.03282 90.7576 6.70571 90.1034 6.0515L86.1038 2.28976V2.1262L104.169 0V28.0421C106.206 22.1541 110.458 18.4816 117.164 18.4816C125.416 18.4816 129.921 24.4439 129.921 35.7291C129.921 40.7993 129.758 47.2522 129.669 53.72H129.698Z"></path>
<path fill="#1B1B1B" d="M140.389 48.9919C134.233 36.7105 138.709 26.5106 150.261 20.7119C161.814 14.9132 172.713 17.3219 178.943 29.7371C185.173 42.1523 180.549 52.263 168.996 58.0468C157.443 63.8307 146.619 61.4071 140.389 48.977V48.9919ZM153.696 42.3159C160.774 56.4261 164.684 58.5672 168.342 56.7384C171.999 54.9096 172.683 50.6274 165.576 36.4428C158.469 22.2582 154.618 20.251 150.96 22.0947C147.303 23.9384 146.574 28.1313 153.696 42.3159Z"></path>
<path fill="#1B1B1B" d="M202.643 53.72C202.643 54.7757 202.718 55.0285 203.461 55.6827L207.461 59.4444V59.608H184.563V59.4444L188.563 55.6827C189.217 55.0285 189.306 54.7906 189.306 53.72V8.08849C189.306 7.03282 189.217 6.70571 188.563 6.0515L184.563 2.28976V2.1262L202.629 0V53.72H202.643Z"></path>
<path fill="#1B1B1B" d="M224.723 37.5282V37.6918C224.723 48.3228 230.121 52.6495 236.41 52.6495C241.317 52.6495 246.134 50.5233 248.84 45.126H249.004C246.877 55.43 240.499 60.2474 230.938 60.2474C220.634 60.2474 210.91 54.0323 210.91 39.6396C210.91 24.5182 220.56 18.4667 231.429 18.4667C240.097 18.4667 249.331 22.5556 249.331 35.7143C249.331 35.9522 249.331 36.532 249.242 37.5133H224.708L224.723 37.5282ZM224.723 36.0562H236.737C236.811 35.0006 236.811 33.93 236.811 33.6029C236.811 22.8976 234.611 20.0279 231.251 20.0279C227.162 20.0279 224.872 24.1911 224.708 36.0562H224.723Z"></path>
<path fill="#1B1B1B" d="M277.953 9.39694C277.953 8.34127 277.863 8.08851 277.209 7.43429L271.738 2.28977V2.12622H298.962V2.28977L293.565 7.43429C292.836 8.08851 292.747 8.3264 292.747 9.39694V56.3369C292.747 57.8089 293 57.9725 294.144 57.9725H301.831C303.229 57.9725 303.631 57.7197 304.21 56.8276L315.57 38.346H315.734V59.608H271.738V59.4445L277.209 54.2999C277.863 53.6457 277.953 53.4078 277.953 52.3373V9.39694Z"></path>
<path fill="#1B1B1B" d="M356.86 37.9445L356.369 49.5569C356.206 52.7536 356.949 54.2999 358.585 54.2999C359.641 54.2999 360.384 53.8093 360.875 52.828H361.038C361.038 53.5714 360.875 54.7906 360.384 55.7719C359.076 58.4631 356.295 60.2622 352.37 60.2622C347.716 60.2622 343.701 57.4818 343.464 52.3373C341.828 57.0804 337.665 60.2622 332.342 60.2622C326.38 60.2622 321.22 56.2626 321.22 48.7391C321.22 40.6506 328.253 36.3982 334.959 36.3982C338.483 36.3982 341.412 37.0524 343.627 38.5988L343.791 29.8561V29.4546C343.791 23.8194 342.081 20.0577 337.828 20.0577C336.193 20.0577 336.119 20.132 335.628 21.039L329.011 33.3056H328.848L323.703 21.6189C329.175 19.6562 334.989 18.5114 340.222 18.5114C345.456 18.5114 349.946 19.4927 352.89 22.2731C355.507 24.7264 356.979 28.726 356.979 35.0303C356.979 35.8481 356.89 37.7215 356.89 37.9743L356.86 37.9445ZM333.963 47.3415C333.963 51.8318 336.014 54.2851 338.78 54.2851C340.579 54.2851 342.378 53.0659 343.434 51.4303V51.3411L343.597 39.4017C342.616 39.0746 341.635 38.911 340.564 38.911C336.312 38.911 333.948 42.5835 333.948 47.3266L333.963 47.3415Z"></path>
<path fill="#1B1B1B" d="M391.043 20.7714H380.992V48.0849C380.992 51.7574 382.627 53.8836 385.318 53.8836C387.445 53.8836 389.155 52.5009 390.062 50.8653L390.225 50.9545C389.407 55.534 386.062 60.2771 378.286 60.2771C371.178 60.2771 367.655 56.441 367.655 49.0811V20.7714H363.164V19.1358H366.837C368.145 19.1358 368.547 19.1358 369.364 18.2437L380.813 5.41217H380.977V19.1507H391.028V20.7862L391.043 20.7714Z"></path>
<path fill="#1B1B1B" d="M420.319 20.7714H410.268V48.0849C410.268 51.7574 411.903 53.8836 414.595 53.8836C416.721 53.8836 418.431 52.5009 419.338 50.8653L419.501 50.9545C418.683 55.534 415.338 60.2771 407.562 60.2771C400.455 60.2771 396.931 56.441 396.931 49.0811V20.7714H390.954V19.1358H396.113C397.421 19.1358 397.823 19.1358 398.641 18.2437L410.089 5.41217H410.253V19.1507H420.304V20.7862L420.319 20.7714Z"></path>
<path fill="#1B1B1B" d="M436.347 37.5282V37.6918C436.347 48.3228 441.745 52.6495 448.034 52.6495C452.941 52.6495 457.758 50.5233 460.464 45.126H460.628C458.501 55.43 452.123 60.2474 442.562 60.2474C432.258 60.2474 422.534 54.0323 422.534 39.6396C422.534 24.5182 432.184 18.4667 443.053 18.4667C451.721 18.4667 460.955 22.5556 460.955 35.7143C460.955 35.9522 460.955 36.532 460.88 37.5133H436.347V37.5282ZM436.347 36.0562H448.361C448.45 35.0006 448.45 33.93 448.45 33.6029C448.45 22.8976 446.235 20.0279 442.889 20.0279C438.801 20.0279 436.511 24.1911 436.347 36.0562Z"></path>
<path fill="#1B1B1B" d="M489.591 9.39694C489.591 8.34127 489.517 8.08851 488.863 7.43429L483.391 2.28977V2.12622H510.616V2.28977L505.218 7.43429C504.475 8.08851 504.401 8.3264 504.401 9.39694V56.3369C504.401 57.8089 504.653 57.9725 505.783 57.9725H513.47C514.853 57.9725 515.269 57.7197 515.834 56.8276L527.194 38.346H527.358V59.608H483.362V59.4445L488.833 54.2999C489.487 53.6457 489.562 53.4078 489.562 52.3373V9.39694H489.591Z"></path>
<path fill="#1B1B1B" d="M602.682 59.608H593.359L582.654 28.5327C582 26.6593 581.672 25.678 580.944 24.206L578.401 19.2994V19.1358H598.846V19.2994L596.065 23.9532C595.575 24.771 595.5 25.0089 595.812 25.9902L603.99 50.6869L610.28 32.2945C610.845 30.7481 610.607 30.421 610.027 29.1869L605.209 19.2994V19.1358H619.275V19.2994L613.714 28.8598C612.733 30.4954 612.331 31.0604 611.841 32.5324L602.682 59.5931V59.608Z"></path>
<path fill="#1B1B1B" d="M633.92 37.5282V37.6918C633.92 48.3228 639.318 52.6495 645.607 52.6495C650.514 52.6495 655.331 50.5233 658.037 45.126H658.201C656.074 55.43 649.696 60.2474 640.135 60.2474C629.831 60.2474 620.107 54.0323 620.107 39.6396C620.107 24.5182 629.757 18.4667 640.626 18.4667C649.294 18.4667 658.528 22.5556 658.528 35.7143C658.528 35.9522 658.528 36.532 658.453 37.5133H633.92V37.5282ZM633.92 36.0562H645.934C646.023 35.0006 646.023 33.93 646.023 33.6029C646.023 22.8976 643.808 20.0279 640.462 20.0279C636.374 20.0279 634.084 24.1911 633.92 36.0562Z"></path>
<path fill="#1B1B1B" d="M535.892 49.0365C529.737 36.7551 534.212 26.5552 545.765 20.7565C557.318 14.9578 568.217 17.3665 574.446 29.7817C580.602 42.0631 576.052 52.3076 564.499 58.0914C552.947 63.8753 542.122 61.4517 535.892 49.0216V49.0365ZM549.2 42.3605C556.277 56.4708 560.187 58.6118 563.845 56.783C567.503 54.9542 568.187 50.672 561.08 36.4874C554.002 22.3772 550.121 20.2956 546.464 22.1393C542.806 23.983 542.078 28.1759 549.2 42.3605Z"></path>
</g>
<defs>
<clipPath id="clip0_168_49">
<rect fill="white" height="61.08" width="658.543"></rect>
</clipPath>
</defs>
</svg>
